<svg xmlns="http://www.w3.org/2000/svg" version="1.1" xmlns:xlink="http://www.w3.org/1999/xlink" xmlns:svgjs="http://svgjs.dev/svgjs" width="2000" height="525" viewBox="0 0 2000 525"><g transform="matrix(1,0,0,1,-1.2121212121212466,1.2203406880825582)"><svg viewBox="0 0 396 104" data-background-color="#151719" preserveAspectRatio="xMidYMid meet" height="525" width="2000" xmlns="http://www.w3.org/2000/svg" xmlns:xlink="http://www.w3.org/1999/xlink"><g id="tight-bounds" transform="matrix(1,0,0,1,0.2400000000000091,-0.2417436791630223)"><svg viewBox="0 0 395.52 104.48348735832606" height="104.48348735832606" width="395.52"><g><svg viewBox="0 0 395.52 104.48348735832606" height="104.48348735832606" width="395.52"><g><svg viewBox="0 0 395.52 104.48348735832606" height="104.48348735832606" width="395.52"><g id="textblocktransform"><svg viewBox="0 0 395.52 104.48348735832606" height="104.48348735832606" width="395.52" id="textblock"><g><svg viewBox="0 0 395.52 104.48348735832606" height="104.48348735832606" width="395.52"><g transform="matrix(1,0,0,1,0,0)"><svg width="395.52" viewBox="4.32 -36.11 140.01000000000002 36.989999999999995" height="104.48348735832606" data-palette-color="#ffffff"><path d="M24.61-22.17L24.61-22.17 23.61-22.19Q23.07-22.24 22.24-22.24L22.24-22.24 16.77-22.24 16.77 0 4.32 0 4.32-34.55 23.71-34.55 26.12-34.62 26.56-34.62Q28.39-34.62 28.39-33.54L28.39-33.54Q28.39-33.13 28.06-32.78 27.73-32.42 27.34-32.42L27.34-32.42Q26.71-32.42 26.12-32.54L26.12-32.54Q25-32.79 23.19-32.79L23.19-32.79 16.77-32.79 16.77-24 21.68-24Q21.68-24 24.71-24.12L24.71-24.12Q26.03-24.12 26.03-23.14 26.03-22.17 24.61-22.17ZM49.05-11.84L49.05-11.84 51.05-11.69Q55.34-11.69 58.35-14.7L58.35-14.7Q61.35-17.7 61.35-22.17L61.35-22.17Q61.35-28.03 56.2-30.86L56.2-30.86Q53.37-32.42 50.14-32.67L50.14-32.67Q48.78-32.79 47.6-32.79L47.6-32.79 45.94-32.79Q45.43-32.79 45.04-32.76L45.04-32.76 45.04 0 32.59 0 32.59-34.55Q38.3-34.55 41.84-34.55 45.38-34.55 46.46-34.52 47.53-34.5 48.37-34.46 49.22-34.42 49.95-34.38L49.95-34.38Q51.02-34.28 52.99-33.91 54.95-33.54 56.88-32.52 58.81-31.49 60.2-29.98L60.2-29.98Q63.21-26.76 63.21-22.31L63.21-22.31Q63.21-17.92 60.42-14.55L60.42-14.55Q57.57-11.11 52.81-10.11L52.81-10.11Q55.08-3.08 58.59-1.71L58.59-1.71Q59.67-1.29 60.74-1.29L60.74-1.29 62.67-1.76Q63.57-1.76 63.57-0.83L63.57-0.83Q63.57 0.46 60.54 0.46L60.54 0.46Q58.35 0.46 56.52-0.76L56.52-0.76Q53.66-2.47 51.66-7.4L51.66-7.4 50.95-9.13Q50.78-9.55 50.64-9.64 50.51-9.74 50.18-9.74 49.85-9.74 49.61-9.69L49.61-9.69 49.02-9.67Q48.04-9.67 47.69-10.03 47.34-10.4 47.34-10.79L47.34-10.79Q47.34-11.84 49.05-11.84ZM82.17-4.35L75.34-4.35Q70.87-4.35 69.23-4.42L69.23-4.42 68.53-2.73Q68.21-2.03 67.94-1.25L67.94-1.25Q67.38 0.27 66.38 0.27L66.38 0.27Q65.91 0.27 65.62-0.02 65.33-0.32 65.33-0.63L65.33-0.63Q65.33-1.17 65.79-1.83L65.79-1.83Q66.52-2.86 67.23-4.52L67.23-4.52Q65.13-4.71 65.13-5.74 65.13-6.76 66.33-6.76L66.33-6.76Q67.06-6.76 68.04-6.52L68.04-6.52 80.22-36.11 96.92 0 84.2 0 82.17-4.35ZM75.26-19.29L70.01-6.32Q72.36-6.13 74.21-6.13L74.21-6.13 81.37-6.13 75.26-19.29ZM99.19 0.37Q98.72 0.32 98.48-0.05 98.23-0.42 98.28-0.85L98.28-0.85Q98.41-1.61 98.75-2.25 99.09-2.88 99.25-3.2 99.41-3.52 99.58-3.91L99.58-3.91 100.51-6.05 110.54-36.11 121.33-15.26 131.8-36.11 144.33 0 131.22 0 125.16-18.65 115.79 0.88 105.93-16.7 102.51-6.03Q101.7-4.25 101.36-3 101.02-1.76 100.8-1.07L100.8-1.07Q100.31 0.46 99.19 0.37L99.19 0.37Z" opacity="1" transform="matrix(1,0,0,1,0,0)" fill="#ffffff" class="wordmark-text-0" data-fill-palette-color="primary" id="text-0"></path></svg></g></svg></g></svg></g></svg></g></svg></g><defs></defs></svg><rect width="395.52" height="104.48348735832606" fill="none" stroke="none" visibility="hidden"></rect></g></svg></g></svg>